<?xml version="1.0" encoding="UTF-8" standalone="no"?>
<!-- Created with Inkscape (http://www.inkscape.org/) -->

<svg
   xmlns:dc="http://purl.org/dc/elements/1.1/"
   xmlns:cc="http://creativecommons.org/ns#"
   xmlns:rdf="http://www.w3.org/1999/02/22-rdf-syntax-ns#"
   xmlns:svg="http://www.w3.org/2000/svg"
   xmlns="http://www.w3.org/2000/svg"
   xmlns:sodipodi="http://sodipodi.sourceforge.net/DTD/sodipodi-0.dtd"
   xmlns:inkscape="http://www.inkscape.org/namespaces/inkscape"
   width="64px"
   height="64px"
   id="svg4048"
   version="1.1"
   inkscape:version="0.48.3.1 r9886"
   sodipodi:docname="New document 3">
  <defs
     id="defs4050" />
  <sodipodi:namedview
     id="base"
     pagecolor="#ffffff"
     bordercolor="#666666"
     borderopacity="1.0"
     inkscape:pageopacity="0.0"
     inkscape:pageshadow="2"
     inkscape:zoom="1"
     inkscape:cx="-9.5380941"
     inkscape:cy="111.61554"
     inkscape:current-layer="layer1"
     showgrid="false"
     inkscape:document-units="px"
     inkscape:grid-bbox="true"
     inkscape:snap-bbox="true"
     inkscape:object-paths="true"
     inkscape:bbox-paths="true"
     inkscape:bbox-nodes="true"
     inkscape:snap-bbox-midpoints="true"
     inkscape:snap-intersection-paths="true"
     inkscape:object-nodes="true"
     inkscape:snap-smooth-nodes="true"
     inkscape:window-width="1366"
     inkscape:window-height="717"
     inkscape:window-x="1920"
     inkscape:window-y="407"
     inkscape:window-maximized="1">
    <inkscape:grid
       type="xygrid"
       id="grid4056" />
  </sodipodi:namedview>
  <metadata
     id="metadata4053">
    <rdf:RDF>
      <cc:Work
         rdf:about="">
        <dc:format>image/svg+xml</dc:format>
        <dc:type
           rdf:resource="http://purl.org/dc/dcmitype/StillImage" />
        <dc:title></dc:title>
      </cc:Work>
    </rdf:RDF>
  </metadata>
  <g
     id="layer1"
     inkscape:label="Layer 1"
     inkscape:groupmode="layer">
    <g
       id="g4612">
      <path
         sodipodi:nodetypes="zsszssz"
         inkscape:connector-curvature="0"
         id="path4610"
         d="M 32,4.5 C 37,4.5 47.5,5 47.5,7 l 0,48 C 47.5,57 37.044248,57.455756 32,57.5 26.955752,57.54424 16.5,57 16.5,55 l 0,-48 C 16.5,5 27,4.5 32,4.5 z"
         style="fill:#ffffff;fill-opacity:1;stroke:#000000;stroke-width:1;stroke-linecap:butt;stroke-linejoin:miter;stroke-miterlimit:4;stroke-opacity:1;stroke-dasharray:none" />
      <path
         d="m 55,31.5 a 22.5,22.5 0 1 1 -45,0 22.5,22.5 0 1 1 45,0 z"
         sodipodi:ry="22.5"
         sodipodi:rx="22.5"
         sodipodi:cy="31.5"
         sodipodi:cx="32.5"
         id="path4576"
         style="fill:#60dc00;fill-opacity:1;stroke:none"
         sodipodi:type="arc"
         transform="matrix(0.44444446,0,0,0.44444446,17.555555,7.0000001)" />
      <path
         d="m 41,21 a 9,9 0 1 1 -18,0 9,9 0 1 1 18,0 z"
         sodipodi:ry="9"
         sodipodi:rx="9"
         sodipodi:cy="21"
         sodipodi:cx="32"
         id="path4608"
         style="fill:#cccccc;fill-opacity:1;stroke:none"
         sodipodi:type="arc" />
      <path
         transform="matrix(0.22222221,0,0,0.22222221,24.777779,14.000001)"
         d="m 55,31.5 a 22.5,22.5 0 1 1 -45,0 22.5,22.5 0 1 1 45,0 z"
         sodipodi:ry="22.5"
         sodipodi:rx="22.5"
         sodipodi:cy="31.5"
         sodipodi:cx="32.5"
         id="path4062"
         style="fill:#000000;fill-opacity:1;stroke:none"
         sodipodi:type="arc" />
      <path
         sodipodi:type="arc"
         style="fill:#df0040;fill-opacity:1;stroke:none"
         id="path4580"
         sodipodi:cx="32.5"
         sodipodi:cy="31.5"
         sodipodi:rx="22.5"
         sodipodi:ry="22.5"
         d="m 55,31.5 a 22.5,22.5 0 1 1 -45,0 22.5,22.5 0 1 1 45,0 z"
         transform="matrix(0.04444443,0,0,0.04444443,30.555557,19.6)" />
    </g>
    <path
       transform="matrix(0.28888892,0,0,0.28888892,62.61111,39.4)"
       sodipodi:type="arc"
       style="fill:#ffffff;fill-opacity:1;stroke:none"
       id="path4066"
       sodipodi:cx="32.5"
       sodipodi:cy="31.5"
       sodipodi:rx="22.5"
       sodipodi:ry="22.5"
       d="m 55,31.5 a 22.5,22.5 0 1 1 -45,0 22.5,22.5 0 1 1 45,0 z" />
  </g>
</svg>
