<?xml version="1.0" encoding="UTF-8" standalone="no"?>
<svg
   xmlns:dc="http://purl.org/dc/elements/1.1/"
   xmlns:cc="http://creativecommons.org/ns#"
   xmlns:rdf="http://www.w3.org/1999/02/22-rdf-syntax-ns#"
   xmlns:svg="http://www.w3.org/2000/svg"
   xmlns="http://www.w3.org/2000/svg"
   xmlns:sodipodi="http://sodipodi.sourceforge.net/DTD/sodipodi-0.dtd"
   xmlns:inkscape="http://www.inkscape.org/namespaces/inkscape"
   version="1.1"
   x="0px"
   y="0px"
   width="612"
   height="612"
   viewBox="0, 0, 612, 612"
   id="svg2"
   inkscape:version="0.48.3.1 r9886"
   sodipodi:docname="ColorSensor.svg"
   inkscape:export-filename="/home/patrick/NetBeansProjects/sfxlib/src/dashfx/controls/res/ColorSensor.png"
   inkscape:export-xdpi="9.4099998"
   inkscape:export-ydpi="9.4099998">
  <metadata
     id="metadata30">
    <rdf:RDF>
      <cc:Work
         rdf:about="">
        <dc:format>image/svg+xml</dc:format>
        <dc:type
           rdf:resource="http://purl.org/dc/dcmitype/StillImage" />
        <dc:title></dc:title>
      </cc:Work>
    </rdf:RDF>
  </metadata>
  <sodipodi:namedview
     pagecolor="#ffffff"
     bordercolor="#666666"
     borderopacity="1"
     objecttolerance="10"
     gridtolerance="10"
     guidetolerance="10"
     inkscape:pageopacity="0"
     inkscape:pageshadow="2"
     inkscape:window-width="640"
     inkscape:window-height="480"
     id="namedview28"
     showgrid="false"
     inkscape:zoom="0.38562092"
     inkscape:cx="306"
     inkscape:cy="306"
     inkscape:window-x="0"
     inkscape:window-y="0"
     inkscape:window-maximized="0"
     inkscape:current-layer="Background" />
  <g
     id="Background" />
  <g
     id="Layer 1">
    <g
       id="g8">
      <path
         d="M306.837,306.122 C232.658,306.122 172.524,247.876 172.524,176.024 C172.524,104.173 232.658,45.926 306.837,45.926 C381.017,45.926 441.152,104.173 441.152,176.024 C441.152,247.876 381.017,306.122 306.837,306.122 z"
         fill="#FF9592"
         id="path10" />
      <path
         d="M306.837,306.122 C232.658,306.122 172.524,247.876 172.524,176.024 C172.524,104.173 232.658,45.926 306.837,45.926 C381.017,45.926 441.152,104.173 441.152,176.024 C441.152,247.876 381.017,306.122 306.837,306.122 z"
         fill-opacity="0"
         stroke="#FF9592"
         stroke-width="9.488"
         id="path12" />
    </g>
    <g
       id="g14">
      <path
         d="M454.493,547.673 C380.314,547.673 320.179,489.425 320.179,417.575 C320.179,345.724 380.314,287.477 454.493,287.477 C528.672,287.477 588.808,345.724 588.808,417.575 C588.808,489.425 528.672,547.673 454.493,547.673 z"
         fill="#8DFB92"
         id="path16" />
      <path
         d="M454.493,547.673 C380.314,547.673 320.179,489.425 320.179,417.575 C320.179,345.724 380.314,287.477 454.493,287.477 C528.672,287.477 588.808,345.724 588.808,417.575 C588.808,489.425 528.672,547.673 454.493,547.673 z"
         fill-opacity="0"
         stroke="#8DFB92"
         stroke-width="9.488"
         id="path18" />
    </g>
    <g
       id="g20">
      <path
         d="M159.055,547.673 C84.875,547.673 24.741,489.425 24.741,417.575 C24.741,345.724 84.875,287.477 159.055,287.477 C233.235,287.477 293.369,345.724 293.369,417.575 C293.369,489.425 233.235,547.673 159.055,547.673 z"
         fill="#9297FF"
         id="path22" />
      <path
         d="M159.055,547.673 C84.875,547.673 24.741,489.425 24.741,417.575 C24.741,345.724 84.875,287.477 159.055,287.477 C233.235,287.477 293.369,345.724 293.369,417.575 C293.369,489.425 233.235,547.673 159.055,547.673 z"
         fill-opacity="0"
         stroke="#9297FF"
         stroke-width="9.488"
         id="path24" />
    </g>
  </g>
  <defs
     id="defs26" />
</svg>
