<?xml version="1.0" encoding="UTF-8" standalone="no"?>
<!-- Created with Inkscape (http://www.inkscape.org/) -->

<svg
   xmlns:dc="http://purl.org/dc/elements/1.1/"
   xmlns:cc="http://creativecommons.org/ns#"
   xmlns:rdf="http://www.w3.org/1999/02/22-rdf-syntax-ns#"
   xmlns:svg="http://www.w3.org/2000/svg"
   xmlns="http://www.w3.org/2000/svg"
   xmlns:sodipodi="http://sodipodi.sourceforge.net/DTD/sodipodi-0.dtd"
   xmlns:inkscape="http://www.inkscape.org/namespaces/inkscape"
   width="64px"
   height="64px"
   id="svg3380"
   version="1.1"
   inkscape:version="0.48.3.1 r9886"
   sodipodi:docname="compass.svg"
   inkscape:export-filename="/home/patrick/NetBeansProjects/sfxlib/src/dashfx/controls/res/compass.png"
   inkscape:export-xdpi="90"
   inkscape:export-ydpi="90">
  <defs
     id="defs3382" />
  <sodipodi:namedview
     id="base"
     pagecolor="#ffffff"
     bordercolor="#666666"
     borderopacity="1.0"
     inkscape:pageopacity="0.0"
     inkscape:pageshadow="2"
     inkscape:zoom="8.46875"
     inkscape:cx="32"
     inkscape:cy="32"
     inkscape:current-layer="layer1"
     showgrid="true"
     inkscape:document-units="px"
     inkscape:grid-bbox="true"
     showguides="false"
     inkscape:guide-bbox="true"
     inkscape:object-nodes="true"
     inkscape:snap-grids="true"
     inkscape:window-width="1366"
     inkscape:window-height="717"
     inkscape:window-x="1920"
     inkscape:window-y="407"
     inkscape:window-maximized="1">
    <inkscape:grid
       type="xygrid"
       id="grid3388" />
    <sodipodi:guide
       orientation="1,0"
       position="32,42"
       id="guide3395" />
    <sodipodi:guide
       orientation="0,1"
       position="-3,32"
       id="guide3397" />
    <sodipodi:guide
       orientation="0.86602555,-0.49999975"
       position="32,32"
       id="guide3401" />
  </sodipodi:namedview>
  <metadata
     id="metadata3385">
    <rdf:RDF>
      <cc:Work
         rdf:about="">
        <dc:format>image/svg+xml</dc:format>
        <dc:type
           rdf:resource="http://purl.org/dc/dcmitype/StillImage" />
        <dc:title></dc:title>
      </cc:Work>
    </rdf:RDF>
  </metadata>
  <g
     id="layer1"
     inkscape:label="Layer 1"
     inkscape:groupmode="layer">
    <path
       sodipodi:type="arc"
       style="fill:#ffffff;fill-opacity:1;stroke:none"
       id="path9348"
       sodipodi:cx="31.751301"
       sodipodi:cy="36.453167"
       sodipodi:rx="30.248699"
       sodipodi:ry="26.546835"
       d="m 62,36.453167 a 30.248699,26.546835 0 1 1 -60.4973984,0 30.248699,26.546835 0 1 1 60.4973984,0 z"
       transform="matrix(0.99177819,0,0,1.1300782,0.5097525,-9.19493)" />
    <path
       style="fill:#3d8c00;fill-opacity:1;stroke:none"
       d="M 32 1 C 30.993743 1 30.012951 1.0625222 29.03125 1.15625 C 28.540898 1.2030663 28.045918 1.2431073 27.5625 1.3125 C 27.469972 1.3257821 27.373513 1.3296526 27.28125 1.34375 C 26.883207 1.4048679 26.489625 1.4858539 26.09375 1.5625 C 25.758063 1.6272655 25.425485 1.7057484 25.09375 1.78125 C 24.887453 1.8282598 24.674236 1.854976 24.46875 1.90625 C 24.119942 1.9932611 23.781518 2.1200348 23.4375 2.21875 C 23.304428 2.2569304 23.163902 2.2725042 23.03125 2.3125 C 22.946587 2.3380346 22.865606 2.3800125 22.78125 2.40625 C 22.437793 2.5130218 22.090305 2.6310072 21.75 2.75 C 21.27517 2.9164281 20.807702 3.0926798 20.34375 3.28125 C 19.742704 3.5255411 19.144061 3.7822751 18.5625 4.0625 C 18.105409 4.2823099 17.666829 4.506464 17.21875 4.75 C 16.787245 4.9845276 16.359807 5.2434691 15.9375 5.5 C 15.55201 5.7341661 15.158419 5.96625 14.78125 6.21875 C 14.742866 6.2444329 14.694512 6.2554005 14.65625 6.28125 C 14.320914 6.5078943 13.984458 6.7587964 13.65625 7 C 13.488649 7.1231121 13.321261 7.248622 13.15625 7.375 C 12.852984 7.6075818 12.577708 7.8484395 12.28125 8.09375 C 11.933823 8.3812359 11.587536 8.6637824 11.25 8.96875 C 10.480304 9.6623689 9.7593556 10.389538 9.0625 11.15625 C 9.0331944 11.188415 8.9978959 11.217741 8.96875 11.25 C 8.6662939 11.58563 8.3814997 11.932578 8.09375 12.28125 C 7.8484395 12.577708 7.6075818 12.852984 7.375 13.15625 C 7.3027308 13.250611 7.2274546 13.342288 7.15625 13.4375 C 7.1018214 13.510212 7.0537067 13.583171 7 13.65625 C 6.7312268 14.02215 6.4715966 14.403365 6.21875 14.78125 C 6.1822525 14.835768 6.1298644 14.882803 6.09375 14.9375 C 5.8812766 15.259458 5.7006345 15.6073 5.5 15.9375 C 5.2434691 16.359807 4.9845276 16.787245 4.75 17.21875 C 4.506464 17.666829 4.2823099 18.105409 4.0625 18.5625 C 3.9183951 18.862164 3.7901575 19.165541 3.65625 19.46875 C 3.5865403 19.626152 3.5046526 19.778733 3.4375 19.9375 C 3.3816696 20.069834 3.3351599 20.210809 3.28125 20.34375 C 3.0926798 20.807702 2.9164281 21.27517 2.75 21.75 C 2.600486 22.176573 2.4436557 22.596385 2.3125 23.03125 C 2.2725042 23.163902 2.2569304 23.304428 2.21875 23.4375 C 2.1200348 23.781518 1.9932611 24.119942 1.90625 24.46875 C 1.854976 24.674236 1.8282598 24.887453 1.78125 25.09375 C 1.7313136 25.313158 1.670254 25.528849 1.625 25.75 C 1.6017248 25.863406 1.5844963 25.98014 1.5625 26.09375 C 1.4867099 26.486578 1.404557 26.88329 1.34375 27.28125 C 1.3294493 27.374386 1.3259505 27.469262 1.3125 27.5625 C 1.2431073 28.045918 1.2030663 28.540898 1.15625 29.03125 C 1.1123572 29.490982 1.0548396 29.940881 1.03125 30.40625 C 1.0296566 30.437639 1.0327484 30.468607 1.03125 30.5 C 1.0075071 30.997686 1 31.496434 1 32 C 1 32.495849 1.007605 33.00461 1.03125 33.5 C 1.0327333 33.531093 1.0296751 33.562681 1.03125 33.59375 C 1.0548001 34.057691 1.1119568 34.506043 1.15625 34.96875 C 1.2030663 35.459102 1.2431073 35.954082 1.3125 36.4375 C 1.3257821 36.530028 1.3296526 36.626487 1.34375 36.71875 C 1.4048679 37.116793 1.4858539 37.510375 1.5625 37.90625 C 1.6272655 38.241937 1.7057484 38.574515 1.78125 38.90625 C 1.8282598 39.112547 1.854976 39.325764 1.90625 39.53125 C 1.9932611 39.880058 2.1200348 40.218482 2.21875 40.5625 C 2.2569304 40.695572 2.2725042 40.836098 2.3125 40.96875 C 2.3380346 41.053413 2.3800125 41.134394 2.40625 41.21875 C 2.5130218 41.562207 2.6310072 41.909695 2.75 42.25 C 2.9164281 42.72483 3.0926798 43.192298 3.28125 43.65625 C 3.4007662 43.950304 3.5280483 44.241775 3.65625 44.53125 C 3.7329925 44.705019 3.7949082 44.889877 3.875 45.0625 C 3.9337392 45.188744 4.0021176 45.312186 4.0625 45.4375 C 4.2823099 45.894591 4.506464 46.333171 4.75 46.78125 C 4.9845276 47.212755 5.2434691 47.640193 5.5 48.0625 C 5.7341661 48.44799 5.96625 48.841581 6.21875 49.21875 C 6.2444329 49.257134 6.2554005 49.305488 6.28125 49.34375 C 6.5078943 49.679086 6.7587964 50.015542 7 50.34375 C 7.1231121 50.511351 7.248622 50.678739 7.375 50.84375 C 7.6075818 51.147016 7.8484395 51.422292 8.09375 51.71875 C 8.3812359 52.066177 8.6637824 52.412464 8.96875 52.75 C 9.6623689 53.519696 10.389538 54.240644 11.15625 54.9375 C 11.188415 54.966806 11.217741 55.002104 11.25 55.03125 C 11.58563 55.333706 11.932578 55.6185 12.28125 55.90625 C 12.577708 56.15156 12.852984 56.392418 13.15625 56.625 C 13.250611 56.697269 13.342288 56.772545 13.4375 56.84375 C 13.510212 56.898179 13.583171 56.946293 13.65625 57 C 14.02215 57.268773 14.403365 57.528403 14.78125 57.78125 C 14.835768 57.817748 14.882803 57.870136 14.9375 57.90625 C 15.259458 58.118723 15.6073 58.299365 15.9375 58.5 C 16.359807 58.756531 16.787245 59.015472 17.21875 59.25 C 17.666829 59.493536 18.105409 59.71769 18.5625 59.9375 C 18.862164 60.081605 19.165541 60.209843 19.46875 60.34375 C 19.626152 60.41346 19.778733 60.495347 19.9375 60.5625 C 20.069834 60.61833 20.210809 60.66484 20.34375 60.71875 C 20.807702 60.90732 21.27517 61.083572 21.75 61.25 C 22.176573 61.399514 22.596385 61.556344 23.03125 61.6875 C 23.163902 61.727496 23.304428 61.74307 23.4375 61.78125 C 23.781518 61.879965 24.119942 62.006739 24.46875 62.09375 C 24.674236 62.145024 24.887453 62.17174 25.09375 62.21875 C 25.313158 62.268686 25.528849 62.329746 25.75 62.375 C 25.863406 62.398275 25.98014 62.415504 26.09375 62.4375 C 26.486578 62.51329 26.88329 62.595443 27.28125 62.65625 C 27.374386 62.670551 27.469262 62.674049 27.5625 62.6875 C 28.045918 62.756893 28.540898 62.796934 29.03125 62.84375 C 29.490982 62.887643 29.940881 62.94516 30.40625 62.96875 C 30.437639 62.970343 30.468607 62.967252 30.5 62.96875 C 30.997686 62.992493 31.496434 63 32 63 C 32.503566 63 33.002314 62.992493 33.5 62.96875 C 33.99539 62.945105 34.474737 62.89104 34.96875 62.84375 C 35.459102 62.796934 35.954082 62.756893 36.4375 62.6875 C 37.264412 62.56821 38.089312 62.404909 38.90625 62.21875 C 39.11348 62.171585 39.325622 62.145044 39.53125 62.09375 C 39.880236 62.006669 40.216126 61.88063 40.5625 61.78125 C 40.6955 61.743086 40.836489 61.72739 40.96875 61.6875 C 41.05321 61.662035 41.134467 61.619951 41.21875 61.59375 C 41.56768 61.485221 41.906476 61.370405 42.25 61.25 C 42.72483 61.083572 43.192298 60.90732 43.65625 60.71875 C 43.789191 60.66484 43.930166 60.61833 44.0625 60.5625 C 44.397498 60.420808 44.733643 60.278012 45.0625 60.125 C 45.191086 60.06534 45.309574 59.999018 45.4375 59.9375 C 45.894591 59.71769 46.333171 59.493536 46.78125 59.25 C 47.212755 59.015472 47.640193 58.756531 48.0625 58.5 C 48.3927 58.299365 48.740542 58.118723 49.0625 57.90625 C 49.155025 57.845159 49.25174 57.780937 49.34375 57.71875 C 49.682178 57.490113 50.015017 57.241473 50.34375 57 C 50.416829 56.946293 50.489788 56.898179 50.5625 56.84375 C 50.657712 56.772545 50.749389 56.697269 50.84375 56.625 C 51.147016 56.392418 51.422292 56.15156 51.71875 55.90625 C 52.067422 55.6185 52.41437 55.333706 52.75 55.03125 C 52.782259 55.002104 52.811585 54.966806 52.84375 54.9375 C 53.610462 54.240644 54.337631 53.519696 55.03125 52.75 C 55.336218 52.412464 55.618764 52.066177 55.90625 51.71875 C 56.15156 51.422292 56.392418 51.147016 56.625 50.84375 C 56.698455 50.747971 56.771565 50.658934 56.84375 50.5625 C 56.897062 50.491214 56.94729 50.415508 57 50.34375 C 57.241204 50.015542 57.492106 49.679086 57.71875 49.34375 C 57.781441 49.250955 57.844541 49.156007 57.90625 49.0625 C 58.119986 48.738786 58.299681 48.392269 58.5 48.0625 C 58.756531 47.640193 59.015472 47.212755 59.25 46.78125 C 59.493536 46.333171 59.71769 45.894591 59.9375 45.4375 C 59.997882 45.312186 60.066261 45.188744 60.125 45.0625 C 60.277157 44.734554 60.422431 44.394503 60.5625 44.0625 C 60.618846 43.929282 60.664221 43.790412 60.71875 43.65625 C 60.90732 43.192298 61.083572 42.72483 61.25 42.25 C 61.368993 41.909695 61.486978 41.562207 61.59375 41.21875 C 61.635617 41.084143 61.678675 40.947886 61.71875 40.8125 C 61.823926 40.457151 61.939069 40.108189 62.03125 39.75 C 62.06325 39.625625 62.09451 39.499974 62.125 39.375 C 62.21573 39.003278 62.298196 38.624219 62.375 38.25 C 62.398168 38.136781 62.41557 38.019915 62.4375 37.90625 C 62.514146 37.510375 62.595132 37.116793 62.65625 36.71875 C 62.670347 36.626487 62.674218 36.530028 62.6875 36.4375 C 62.756893 35.954082 62.796934 35.459102 62.84375 34.96875 C 62.888043 34.506043 62.9452 34.057691 62.96875 33.59375 C 62.970325 33.562681 62.967267 33.531093 62.96875 33.5 C 63.017538 32.477826 63.02063 31.4283 62.96875 30.40625 C 62.94516 29.940881 62.887643 29.490982 62.84375 29.03125 C 62.796934 28.540898 62.756893 28.045918 62.6875 27.5625 C 62.674049 27.469262 62.670551 27.374386 62.65625 27.28125 C 62.595443 26.88329 62.51329 26.486578 62.4375 26.09375 C 62.415504 25.98014 62.398275 25.863406 62.375 25.75 C 62.297689 25.372192 62.21592 24.997664 62.125 24.625 C 62.094422 24.49972 62.06341 24.374965 62.03125 24.25 C 61.939166 23.8921 61.823173 23.540276 61.71875 23.1875 C 61.678874 23.052774 61.635494 22.915531 61.59375 22.78125 C 61.485221 22.43232 61.370405 22.093524 61.25 21.75 C 61.083572 21.27517 60.90732 20.807702 60.71875 20.34375 C 60.66484 20.210809 60.61833 20.069834 60.5625 19.9375 C 60.420808 19.602502 60.278012 19.266357 60.125 18.9375 C 60.06534 18.808914 59.999018 18.690426 59.9375 18.5625 C 59.71769 18.105409 59.493536 17.666829 59.25 17.21875 C 59.015472 16.787245 58.756531 16.359807 58.5 15.9375 C 58.299365 15.6073 58.118723 15.259458 57.90625 14.9375 C 57.845159 14.844975 57.780937 14.74826 57.71875 14.65625 C 57.490113 14.317822 57.241473 13.984983 57 13.65625 C 56.946293 13.583171 56.898179 13.510212 56.84375 13.4375 C 56.772545 13.342288 56.697269 13.250611 56.625 13.15625 C 56.392418 12.852984 56.15156 12.577708 55.90625 12.28125 C 55.6185 11.932578 55.333706 11.58563 55.03125 11.25 C 55.002104 11.217741 54.966806 11.188415 54.9375 11.15625 C 53.936777 10.05521 52.867027 9.0413927 51.71875 8.09375 C 51.422292 7.8484395 51.147016 7.6075818 50.84375 7.375 C 50.747971 7.301545 50.658934 7.2284354 50.5625 7.15625 C 50.491214 7.1029384 50.415508 7.0527105 50.34375 7 C 50.015542 6.7587964 49.679086 6.5078943 49.34375 6.28125 C 49.250955 6.218559 49.156007 6.1554588 49.0625 6.09375 C 48.738786 5.8800145 48.392269 5.7003187 48.0625 5.5 C 47.640193 5.2434691 47.212755 4.9845276 46.78125 4.75 C 46.333171 4.506464 45.894591 4.2823099 45.4375 4.0625 C 45.312186 4.0021176 45.188744 3.9337392 45.0625 3.875 C 44.734554 3.7228434 44.394503 3.5775686 44.0625 3.4375 C 43.929282 3.3811535 43.790412 3.3357793 43.65625 3.28125 C 43.192298 3.0926798 42.72483 2.9164281 42.25 2.75 C 41.909695 2.6310072 41.562207 2.5130218 41.21875 2.40625 C 41.002612 2.3390242 40.780637 2.2813438 40.5625 2.21875 C 40.216126 2.1193701 39.880236 1.9933305 39.53125 1.90625 C 39.325622 1.8549556 39.11348 1.8284147 38.90625 1.78125 C 38.089312 1.5950906 37.264412 1.4317901 36.4375 1.3125 C 35.954082 1.2431073 35.459102 1.2030663 34.96875 1.15625 C 34.506043 1.1119568 34.057691 1.0548001 33.59375 1.03125 C 33.562681 1.0296751 33.531093 1.0327333 33.5 1.03125 C 33.00461 1.007605 32.495849 1 32 1 z M 32 2 L 32 5 L 33 5 L 33 2.03125 C 33.492661 2.0475576 33.982388 2.0852196 34.46875 2.125 C 34.955112 2.1647804 35.426741 2.2185508 35.90625 2.28125 C 36.385759 2.3439492 36.871648 2.4149359 37.34375 2.5 C 37.585932 2.5435477 37.821244 2.575467 38.0625 2.625 C 38.29256 2.6722901 38.521897 2.728726 38.75 2.78125 C 39.21414 2.8881249 39.669375 2.9968682 40.125 3.125 C 41.03625 3.3812636 41.938635 3.6932828 42.8125 4.03125 C 43.249433 4.2002336 43.666995 4.3739215 44.09375 4.5625 C 44.331894 4.6673801 44.576595 4.7636162 44.8125 4.875 C 44.999851 4.9636795 45.189806 5.0638278 45.375 5.15625 C 45.791024 5.3638694 46.189011 5.5863936 46.59375 5.8125 C 46.998489 6.0386064 47.38835 6.2559606 47.78125 6.5 C 48.17415 6.7440394 48.588243 7.0198317 48.96875 7.28125 C 49.349257 7.5426683 49.72619 7.8155067 50.09375 8.09375 C 50.387474 8.3166652 50.681538 8.5460504 50.96875 8.78125 C 51.032868 8.8336968 51.092576 8.8845343 51.15625 8.9375 C 51.167407 8.9467871 51.176353 8.9594442 51.1875 8.96875 C 51.883372 9.5493282 52.547164 10.172164 53.1875 10.8125 L 51.09375 12.90625 L 51.8125 13.625 L 53.90625 11.53125 C 53.991141 11.622009 54.07248 11.72069 54.15625 11.8125 C 54.402307 12.082083 54.640548 12.348779 54.875 12.625 C 54.937504 12.698688 55.000698 12.769453 55.0625 12.84375 C 55.311972 13.143488 55.545274 13.44303 55.78125 13.75 C 55.822644 13.803919 55.865215 13.852042 55.90625 13.90625 C 55.955317 13.970967 56.014028 14.028728 56.0625 14.09375 C 56.289523 14.398725 56.503199 14.717506 56.71875 15.03125 C 56.946686 15.363021 57.1915 15.72128 57.40625 16.0625 C 57.418424 16.081858 57.425375 16.105621 57.4375 16.125 C 57.456955 16.156067 57.480656 16.187607 57.5 16.21875 C 57.730997 16.5911 57.94309 16.963792 58.15625 17.34375 C 58.190701 17.405079 58.215968 17.469655 58.25 17.53125 C 58.444533 17.883831 58.633233 18.235246 58.8125 18.59375 C 58.818867 18.606462 58.837401 18.612278 58.84375 18.625 C 59.047501 19.033886 59.253585 19.459112 59.4375 19.875 C 59.441294 19.883564 59.433714 19.897681 59.4375 19.90625 C 59.622596 20.325924 59.803839 20.730199 59.96875 21.15625 C 59.972276 21.165339 59.965233 21.178406 59.96875 21.1875 C 60.137734 21.624433 60.288665 22.084694 60.4375 22.53125 C 60.527019 22.799839 60.60543 23.071841 60.6875 23.34375 C 60.734547 23.500095 60.799309 23.655556 60.84375 23.8125 C 60.850066 23.834759 60.868734 23.85272 60.875 23.875 C 60.994107 24.29933 61.087423 24.728042 61.1875 25.15625 C 61.195034 25.188477 61.21132 25.217734 61.21875 25.25 C 61.315086 25.668439 61.390563 26.078546 61.46875 26.5 C 61.478474 26.55236 61.490548 26.603794 61.5 26.65625 C 61.572446 27.058564 61.631566 27.47057 61.6875 27.875 C 61.69755 27.947702 61.709222 28.020882 61.71875 28.09375 C 61.769002 28.477821 61.808366 28.86459 61.84375 29.25 C 61.852421 29.344929 61.867215 29.436067 61.875 29.53125 C 61.905034 29.896023 61.920767 30.259536 61.9375 30.625 C 61.943239 30.750331 61.933326 30.874618 61.9375 31 L 59 31 L 59 32 L 61.96875 32 C 61.96875 33.380532 61.876969 34.755045 61.6875 36.125 C 61.624344 36.581652 61.552958 37.04609 61.46875 37.5 C 61.384542 37.95391 61.29276 38.393366 61.1875 38.84375 C 60.976979 39.744518 60.732229 40.649285 60.4375 41.53125 C 60.29747 41.950283 60.159038 42.367505 60 42.78125 C 59.991669 42.802922 59.977133 42.822093 59.96875 42.84375 C 59.88815 43.05151 59.80382 43.263265 59.71875 43.46875 C 59.626804 43.691096 59.535023 43.904469 59.4375 44.125 C 59.418251 44.168451 59.394449 44.206658 59.375 44.25 C 59.010711 45.063573 58.596694 45.871158 58.15625 46.65625 C 58.041498 46.860341 57.931858 47.080154 57.8125 47.28125 C 57.692355 47.483825 57.562827 47.674691 57.4375 47.875 C 57.312205 48.07516 57.192355 48.271797 57.0625 48.46875 C 57.042046 48.499809 57.020581 48.531501 57 48.5625 C 56.759665 48.924055 56.505386 49.274702 56.25 49.625 C 56.097316 49.834692 55.940045 50.043431 55.78125 50.25 C 55.653634 50.415783 55.537231 50.586987 55.40625 50.75 C 55.23379 50.964891 55.054243 51.163824 54.875 51.375 C 54.559219 51.747039 54.243083 52.108854 53.90625 52.46875 L 51.8125 50.375 L 51.09375 51.09375 L 53.1875 53.1875 L 53.21875 53.21875 C 52.995375 53.441972 52.761546 53.658875 52.53125 53.875 C 52.396245 54.001782 52.261757 54.126192 52.125 54.25 C 51.912367 54.442382 51.686859 54.626192 51.46875 54.8125 C 51.306876 54.950883 51.132839 55.084377 50.96875 55.21875 C 50.772043 55.379587 50.575822 55.531603 50.375 55.6875 C 50.003155 55.97616 49.635496 56.25998 49.25 56.53125 C 48.502671 57.057138 47.732866 57.542721 46.9375 58 C 46.912315 58.01448 46.900231 58.048091 46.875 58.0625 C 46.623809 58.205915 46.379365 58.333192 46.125 58.46875 C 45.959414 58.557119 45.792419 58.633411 45.625 58.71875 C 45.359636 58.853922 45.080949 58.99825 44.8125 59.125 C 44.651144 59.201284 44.475419 59.270272 44.3125 59.34375 C 43.878316 59.53957 43.444876 59.730765 43 59.90625 C 42.72505 60.014355 42.464901 60.119086 42.1875 60.21875 C 42.010283 60.28273 41.834998 60.345527 41.65625 60.40625 C 41.607328 60.42281 41.54899 60.4212 41.5 60.4375 C 40.638366 60.725071 39.7694 60.977885 38.875 61.1875 C 38.608775 61.249785 38.330018 61.320075 38.0625 61.375 C 37.855341 61.417524 37.646189 61.461766 37.4375 61.5 C 37.185226 61.546172 36.940665 61.585329 36.6875 61.625 C 36.45043 61.662293 36.207626 61.687037 35.96875 61.71875 C 35.479293 61.783729 34.996597 61.833889 34.5 61.875 C 34.003403 61.916111 33.503146 61.952095 33 61.96875 L 33 59 L 32 59 L 32 62 C 31.686579 61.999818 31.375798 61.978695 31.0625 61.96875 C 30.62393 61.954829 30.187746 61.939302 29.75 61.90625 C 29.24731 61.868778 28.745484 61.811943 28.25 61.75 C 27.782952 61.69118 27.308154 61.61202 26.84375 61.53125 C 26.548389 61.47988 26.262765 61.435248 25.96875 61.375 C 25.936821 61.368466 25.906892 61.350385 25.875 61.34375 C 25.623035 61.291253 25.375811 61.246524 25.125 61.1875 C 24.780675 61.106469 24.435598 61.030831 24.09375 60.9375 C 23.762951 60.847185 23.421908 60.758082 23.09375 60.65625 C 22.968498 60.617293 22.843292 60.571799 22.71875 60.53125 C 22.373949 60.41928 22.028868 60.312269 21.6875 60.1875 C 21.582593 60.149088 21.479354 60.102046 21.375 60.0625 C 20.570411 59.758081 19.781249 59.407233 19 59.03125 C 18.916728 58.991126 18.832842 58.947119 18.75 58.90625 C 18.394347 58.730964 18.037423 58.565221 17.6875 58.375 C 17.613226 58.334652 17.542644 58.290956 17.46875 58.25 C 17.456323 58.243107 17.449919 58.225662 17.4375 58.21875 C 17.022938 57.988201 16.620945 57.749333 16.21875 57.5 C 15.55433 57.087882 14.887498 56.656321 14.25 56.1875 C 14.184982 56.139685 14.127219 56.079655 14.0625 56.03125 C 13.972906 55.964247 13.870066 55.911728 13.78125 55.84375 C 13.623153 55.722711 13.468714 55.593355 13.3125 55.46875 C 13.079965 55.283359 12.851827 55.098333 12.625 54.90625 C 12.358053 54.680123 12.104516 54.455684 11.84375 54.21875 C 11.73622 54.121017 11.637346 54.005515 11.53125 53.90625 L 13.625 51.8125 L 12.90625 51.09375 L 10.78125 53.21875 C 10.420817 52.858317 10.060548 52.472064 9.71875 52.09375 C 9.5946808 51.956431 9.4648294 51.82654 9.34375 51.6875 C 9.1467104 51.461076 8.971531 51.232316 8.78125 51 C 8.4935374 50.649334 8.2381566 50.297841 7.96875 49.9375 C 7.9197535 49.871984 7.8609719 49.815928 7.8125 49.75 C 7.6552803 49.53607 7.4945778 49.310841 7.34375 49.09375 C 7.2360671 48.938675 7.1360633 48.782185 7.03125 48.625 C 6.9052034 48.436209 6.7775561 48.253477 6.65625 48.0625 C 6.5183785 47.84532 6.3823947 47.627167 6.25 47.40625 C 6.1638156 47.262386 6.083561 47.11373 6 46.96875 C 5.8045794 46.629815 5.6198835 46.284625 5.4375 45.9375 C 5.2740551 45.626482 5.1205202 45.31539 4.96875 45 C 4.9080072 44.873938 4.8402742 44.752034 4.78125 44.625 C 4.742112 44.540645 4.6945616 44.459641 4.65625 44.375 C 4.4929697 44.01427 4.3357689 43.64688 4.1875 43.28125 C 4.0548806 42.954212 3.9331096 42.6431 3.8125 42.3125 C 3.7676362 42.189971 3.7308052 42.060771 3.6875 41.9375 C 3.527324 41.479416 3.3872937 40.99511 3.25 40.53125 C 3.1468178 40.182639 3.0277579 39.851434 2.9375 39.5 C 2.9294358 39.468657 2.9142153 39.437633 2.90625 39.40625 C 2.7924142 38.95775 2.7183732 38.487553 2.625 38.03125 C 2.6037098 37.927208 2.58271 37.823182 2.5625 37.71875 C 2.5503195 37.655838 2.5430253 37.594224 2.53125 37.53125 C 2.4553769 37.125331 2.3718469 36.723998 2.3125 36.3125 C 2.2528487 35.899001 2.1986231 35.477721 2.15625 35.0625 C 2.1499361 35.000329 2.1309336 34.937283 2.125 34.875 C 2.0941601 34.552832 2.0829487 34.229089 2.0625 33.90625 C 2.0526512 33.75023 2.0387046 33.594159 2.03125 33.4375 C 2.0083677 32.95809 2 32.479854 2 32 L 5 32 L 5 31 L 2.03125 31 C 2.0645593 29.993708 2.151292 29.010164 2.28125 28.03125 C 2.3268907 27.68746 2.3803313 27.340019 2.4375 27 C 2.4776632 26.761124 2.5167328 26.518179 2.5625 26.28125 C 2.5663328 26.261454 2.5586271 26.23854 2.5625 26.21875 C 2.7276536 25.373034 2.9529829 24.537466 3.1875 23.71875 C 3.211392 23.635341 3.2254066 23.55186 3.25 23.46875 C 3.3200377 23.232121 3.3927576 22.985183 3.46875 22.75 C 3.5229073 22.582736 3.5680021 22.415965 3.625 22.25 C 3.7707192 21.82435 3.9283452 21.420047 4.09375 21 C 4.269235 20.555124 4.4604303 20.121684 4.65625 19.6875 C 4.8520697 19.253316 5.0656845 18.7979 5.28125 18.375 C 5.3345869 18.270363 5.3829768 18.166424 5.4375 18.0625 C 5.4973751 17.948564 5.5635581 17.83207 5.625 17.71875 C 5.7615343 17.466638 5.8877752 17.216445 6.03125 16.96875 C 6.2361664 16.615119 6.4669426 16.284301 6.6875 15.9375 C 6.9407906 15.538944 7.1974801 15.135496 7.46875 14.75 C 7.7400199 14.364504 8.0238397 13.996845 8.3125 13.625 C 8.6011603 13.253155 8.8820381 12.888851 9.1875 12.53125 C 9.3642995 12.324273 9.5364777 12.108299 9.71875 11.90625 C 9.8167369 11.797799 9.9313982 11.701105 10.03125 11.59375 C 10.106407 11.512837 10.173965 11.423828 10.25 11.34375 C 10.427001 11.157337 10.630808 10.994317 10.8125 10.8125 L 12.90625 12.90625 L 13.625 12.1875 L 11.53125 10.09375 C 11.820622 9.8230037 12.106322 9.5404795 12.40625 9.28125 C 12.682812 9.042374 12.966953 8.8208781 13.25 8.59375 C 13.61678 8.299042 13.994363 8.0275049 14.375 7.75 C 14.580488 7.6001881 14.790605 7.4571654 15 7.3125 C 15.178863 7.1890283 15.35034 7.0566527 15.53125 6.9375 C 15.728203 6.8076451 15.92484 6.6877952 16.125 6.5625 C 16.18857 6.5227379 16.248699 6.4767411 16.3125 6.4375 C 16.609207 6.2548843 16.915317 6.0786962 17.21875 5.90625 C 17.336531 5.8393963 17.444017 5.7526345 17.5625 5.6875 C 17.952802 5.4729362 18.352506 5.2896575 18.75 5.09375 C 19.181008 4.881325 19.623839 4.6904879 20.0625 4.5 C 20.221326 4.4310302 20.371496 4.3473438 20.53125 4.28125 C 20.706614 4.2086499 20.885476 4.1318478 21.0625 4.0625 C 21.23796 3.9938417 21.417285 3.9402311 21.59375 3.875 C 21.96441 3.7377786 22.341343 3.5915623 22.71875 3.46875 C 23.170213 3.3221426 23.637138 3.1871639 24.09375 3.0625 C 24.281767 3.0111678 24.46746 2.9538614 24.65625 2.90625 C 24.844369 2.8588216 25.029233 2.825102 25.21875 2.78125 C 25.354886 2.7496837 25.48852 2.7171458 25.625 2.6875 C 26.025823 2.6007292 26.43712 2.5393068 26.84375 2.46875 C 27.071698 2.4291048 27.302614 2.3781071 27.53125 2.34375 C 28.13978 2.2526021 28.755053 2.1789789 29.375 2.125 C 29.468712 2.1167483 29.562479 2.1011236 29.65625 2.09375 C 29.717978 2.0889542 29.781918 2.0981712 29.84375 2.09375 C 30.25037 2.0643206 30.65519 2.0441791 31.0625 2.03125 C 31.3772 2.0214758 31.682919 2 32 2 z "
       id="path3390" />
    <path
       transform="matrix(0.25881904,0.96592583,-0.96592583,0.25881904,0,0)"
       style="fill:none;fill-opacity:1;stroke:#0655a1;stroke-opacity:1"
       d="m 20.412412,-41.40683 23.779425,13.779411 0,10 -10,0 z"
       id="rect3399"
       inkscape:connector-curvature="0"
       sodipodi:nodetypes="ccccc" />
  </g>
</svg>
