<?xml version="1.0" encoding="UTF-8" standalone="no"?>
<svg
   xmlns:dc="http://purl.org/dc/elements/1.1/"
   xmlns:cc="http://creativecommons.org/ns#"
   xmlns:rdf="http://www.w3.org/1999/02/22-rdf-syntax-ns#"
   xmlns:svg="http://www.w3.org/2000/svg"
   xmlns="http://www.w3.org/2000/svg"
   xmlns:sodipodi="http://sodipodi.sourceforge.net/DTD/sodipodi-0.dtd"
   xmlns:inkscape="http://www.inkscape.org/namespaces/inkscape"
   version="1.1"
   x="0px"
   y="0px"
   width="612"
   height="612"
   viewBox="0, 0, 612, 612"
   id="svg2"
   inkscape:version="0.48.3.1 r9886"
   sodipodi:docname="image.svg"
   inkscape:export-filename="/home/patrick/NetBeansProjects/sfxlib/src/dashfx/controls/res/image.png"
   inkscape:export-xdpi="9.4099998"
   inkscape:export-ydpi="9.4099998">
  <metadata
     id="metadata32">
    <rdf:RDF>
      <cc:Work
         rdf:about="">
        <dc:format>image/svg+xml</dc:format>
        <dc:type
           rdf:resource="http://purl.org/dc/dcmitype/StillImage" />
        <dc:title></dc:title>
      </cc:Work>
    </rdf:RDF>
  </metadata>
  <sodipodi:namedview
     pagecolor="#ffffff"
     bordercolor="#666666"
     borderopacity="1"
     objecttolerance="10"
     gridtolerance="10"
     guidetolerance="10"
     inkscape:pageopacity="0"
     inkscape:pageshadow="2"
     inkscape:window-width="640"
     inkscape:window-height="480"
     id="namedview30"
     showgrid="false"
     inkscape:zoom="0.38562092"
     inkscape:cx="306"
     inkscape:cy="306"
     inkscape:window-x="0"
     inkscape:window-y="0"
     inkscape:window-maximized="0"
     inkscape:current-layer="Background" />
  <g
     id="Background" />
  <g
     id="Layer 1">
    <g
       id="g8">
      <path
         d="M48.621,60.184 L567.988,60.184 L567.988,562.598 L48.621,562.598 z"
         fill="#FFFFFF"
         id="path10" />
      <path
         d="M48.621,60.184 L567.988,60.184 L567.988,562.598 L48.621,562.598 z"
         fill-opacity="0"
         stroke="#000000"
         stroke-width="43.496"
         id="path12" />
    </g>
    <g
       id="g14">
      <path
         d="M337.347,240.002 C365.616,240.002 390.109,255.847 403.637,279.197 L483.319,279.29 L483.319,235.183 C483.319,218.828 470.421,205.531 454.511,205.531 L157.399,205.531 C141.534,205.531 128.681,218.828 128.681,235.183 L128.771,278.919 L271.057,279.012 C284.675,255.754 309.079,240.002 337.347,240.002"
         fill="#000000"
         id="path16" />
      <path
         d="M203.195,191.539 L176.769,191.539 L173.713,201.362 L205.397,201.362 z"
         fill="#000000"
         id="path18" />
      <path
         d="M441.523,186.304 L406.333,186.304 L400.086,201.454 L447.231,201.454 z"
         fill="#000000"
         id="path20" />
      <path
         d="M348.493,175.046 L263.013,175.046 L245.396,201.64 L364.672,201.64 L348.493,175.046 z M320.719,196.219 L290.383,196.219 L290.383,181.115 L320.719,181.115 L320.719,196.219 z"
         fill="#000000"
         id="path22" />
      <path
         d="M407.727,287.074 C412.131,297.081 414.737,308.108 414.737,319.83 C414.737,363.891 380.087,399.658 337.302,399.658 C294.517,399.658 259.867,363.937 259.867,319.83 C259.867,308.108 262.429,297.081 266.878,287.027 L128.636,287.027 L128.636,407.303 C128.636,423.657 141.444,436.954 157.354,436.954 L454.466,436.954 C470.376,436.954 483.274,423.657 483.274,407.303 L483.364,287.074 L407.727,287.074 z"
         fill="#000000"
         id="path24" />
      <path
         d="M379.548,293.606 C378.334,291.383 376.806,289.298 375.143,287.305 C366.11,276.093 352.583,268.773 337.302,268.773 C322.022,268.773 308.494,276.047 299.461,287.213 C297.798,289.251 296.315,291.336 294.967,293.606 C290.383,301.297 287.686,310.193 287.686,319.83 C287.686,347.999 309.887,370.887 337.302,370.887 C364.582,370.887 386.828,348.045 386.828,319.83 C386.828,310.193 384.132,301.297 379.548,293.606"
         fill="#000000"
         id="path26" />
    </g>
  </g>
  <defs
     id="defs28" />
</svg>
