<?xml version="1.0" encoding="UTF-8"?>
<!DOCTYPE svg PUBLIC "-//W3C//DTD SVG 1.1//EN" "http://www.w3.org/Graphics/SVG/1.1/DTD/svg11.dtd">
<svg version="1.1" xmlns="http://www.w3.org/2000/svg" xmlns:xlink="http://www.w3.org/1999/xlink" x="0px" y="0px" width="612" height="612" viewBox="0, 0, 612, 612">
  <g id="Background">
    <rect x="0" y="0" width="612" height="612" fill="#FFFFFF"/>
  </g>
  <g id="Layer 1">
    <g>
      <path d="M-0,-0 L611.505,-0 L611.505,610.026 L-0,610.026 z" fill="#E1E0E3"/>
      <path d="M-0,86.864 L611.505,86.864 L611.505,90.813 L-0,90.813 z" fill="#BABABD"/>
      <path d="M-0,171.755 L611.505,171.755 L611.505,175.703 L-0,175.703 z" fill="#BABABD"/>
      <path d="M-0,260.594 L611.505,260.594 L611.505,264.542 L-0,264.542 z" fill="#BABABD"/>
      <path d="M-0,346.471 L611.505,346.471 L611.505,350.419 L-0,350.419 z" fill="#BABABD"/>
      <path d="M-0,433.335 L611.505,433.335 L611.505,437.284 L-0,437.284 z" fill="#BABABD"/>
      <path d="M-0,521.187 L611.505,521.187 L611.505,525.135 L-0,525.135 z" fill="#BABABD"/>
      <path d="M84.907,87.852 L88.723,87.852 L88.723,610.026 L84.907,610.026 z" fill="#BABABD"/>
      <path d="M173.632,87.852 L177.448,87.852 L177.448,610.026 L173.632,610.026 z" fill="#BABABD"/>
      <path d="M261.383,87.852 L265.199,87.852 L265.199,611.013 L261.383,611.013 z" fill="#BABABD"/>
      <path d="M348.198,87.852 L352.014,87.852 L352.014,611.013 L348.198,611.013 z" fill="#BABABD"/>
      <path d="M435.968,87.852 L439.784,87.852 L439.784,611.013 L435.968,611.013 z" fill="#BABABD"/>
      <path d="M524.693,87.852 L528.509,87.852 L528.509,611.013 L524.693,611.013 z" fill="#BABABD"/>
      <g>
        <path d="M89.694,263.068 L175.553,263.068 L175.553,347.958 L89.694,347.958 z" fill="#4890CB"/>
        <path d="M89.694,263.068 L175.553,263.068 L175.553,347.958 L89.694,347.958 z" fill-opacity="0" stroke="#00689A" stroke-width="1"/>
      </g>
      <text transform="matrix(1, 0, 0, 1, 44.2, 134.245)">
        <tspan x="-13.348" y="-10.561" font-family="Helvetica-Bold" font-size="24" fill="#9CA4AC">26</tspan>
      </text>
      <text transform="matrix(1, 0, 0, 1, 131.321, 134.245)">
        <tspan x="-13.348" y="-10.561" font-family="Helvetica-Bold" font-size="24" fill="#9CA4AC">27</tspan>
      </text>
      <text transform="matrix(1, 0, 0, 1, 218.231, 134.245)">
        <tspan x="-13.348" y="-10.561" font-family="Helvetica-Bold" font-size="24" fill="#9CA4AC">28</tspan>
      </text>
      <text transform="matrix(1, 0, 0, 1, 305.466, 134.245)">
        <tspan x="-13.348" y="-10.561" font-family="Helvetica-Bold" font-size="24" fill="#9CA4AC">29</tspan>
      </text>
      <text transform="matrix(1, 0, 0, 1, 393.236, 134.245)">
        <tspan x="-13.348" y="-10.561" font-family="Helvetica-Bold" font-size="24" fill="#9CA4AC">30</tspan>
      </text>
      <text transform="matrix(1, 0, 0, 1, 481.656, 134.245)">
        <tspan x="-13.348" y="-10.561" font-family="Helvetica-Bold" font-size="24" fill="#9CA4AC">31</tspan>
      </text>
      <text transform="matrix(1, 0, 0, 1, 568.738, 134.245)">
        <tspan x="-6.674" y="-10.561" font-family="Helvetica-Bold" font-size="24" fill="#495D6D">1</tspan>
      </text>
      <text transform="matrix(1, 0, 0, 1, 44.2, 221.882)">
        <tspan x="-6.674" y="-10.561" font-family="Helvetica-Bold" font-size="24" fill="#495D6D">2</tspan>
      </text>
      <text transform="matrix(1, 0, 0, 1, 131.321, 221.882)">
        <tspan x="-6.674" y="-10.561" font-family="Helvetica-Bold" font-size="24" fill="#495D6D">3</tspan>
      </text>
      <text transform="matrix(1, 0, 0, 1, 218.231, 221.882)">
        <tspan x="-6.674" y="-10.561" font-family="Helvetica-Bold" font-size="24" fill="#495D6D">4</tspan>
      </text>
      <text transform="matrix(1, 0, 0, 1, 305.466, 221.882)">
        <tspan x="-6.674" y="-10.561" font-family="Helvetica-Bold" font-size="24" fill="#495D6D">5</tspan>
      </text>
      <text transform="matrix(1, 0, 0, 1, 393.236, 221.882)">
        <tspan x="-6.674" y="-10.561" font-family="Helvetica-Bold" font-size="24" fill="#495D6D">6</tspan>
      </text>
      <text transform="matrix(1, 0, 0, 1, 481.656, 221.882)">
        <tspan x="-6.674" y="-10.561" font-family="Helvetica-Bold" font-size="24" fill="#495D6D">7</tspan>
      </text>
      <text transform="matrix(1, 0, 0, 1, 568.738, 221.882)">
        <tspan x="-6.674" y="-10.561" font-family="Helvetica-Bold" font-size="24" fill="#495D6D">8</tspan>
      </text>
      <text transform="matrix(1, 0, 0, 1, 44.2, 310.033)">
        <tspan x="-6.674" y="-10.561" font-family="Helvetica-Bold" font-size="24" fill="#495D6D">9</tspan>
      </text>
      <text transform="matrix(1, 0, 0, 1, 131.321, 310.033)">
        <tspan x="-13.348" y="-10.561" font-family="Helvetica-Bold" font-size="24" fill="#FFFFFF">10</tspan>
      </text>
      <text transform="matrix(1, 0, 0, 1, 218.231, 310.033)">
        <tspan x="-12.691" y="-10.561" font-family="Helvetica-Bold" font-size="24" fill="#495D6D">11</tspan>
      </text>
      <text transform="matrix(1, 0, 0, 1, 305.466, 310.033)">
        <tspan x="-13.348" y="-10.561" font-family="Helvetica-Bold" font-size="24" fill="#495D6D">12</tspan>
      </text>
      <text transform="matrix(1, 0, 0, 1, 392.605, 310.033)">
        <tspan x="-13.348" y="-10.561" font-family="Helvetica-Bold" font-size="24" fill="#495D6D">13</tspan>
      </text>
      <text transform="matrix(1, 0, 0, 1, 481.656, 310.033)">
        <tspan x="-13.348" y="-10.561" font-family="Helvetica-Bold" font-size="24" fill="#495D6D">14</tspan>
      </text>
      <text transform="matrix(1, 0, 0, 1, 568.738, 310.033)">
        <tspan x="-13.348" y="-10.561" font-family="Helvetica-Bold" font-size="24" fill="#495D6D">15</tspan>
      </text>
      <text transform="matrix(1, 0, 0, 1, 44.2, 396.809)">
        <tspan x="-13.348" y="-10.561" font-family="Helvetica-Bold" font-size="24" fill="#495D6D">16</tspan>
      </text>
      <text transform="matrix(1, 0, 0, 1, 131.321, 396.809)">
        <tspan x="-13.348" y="-10.561" font-family="Helvetica-Bold" font-size="24" fill="#495D6D">17</tspan>
      </text>
      <text transform="matrix(1, 0, 0, 1, 218.231, 396.809)">
        <tspan x="-13.348" y="-10.561" font-family="Helvetica-Bold" font-size="24" fill="#495D6D">18</tspan>
      </text>
      <text transform="matrix(1, 0, 0, 1, 305.466, 396.809)">
        <tspan x="-13.348" y="-10.561" font-family="Helvetica-Bold" font-size="24" fill="#495D6D">19</tspan>
      </text>
      <text transform="matrix(1, 0, 0, 1, 393.236, 396.809)">
        <tspan x="-13.348" y="-10.561" font-family="Helvetica-Bold" font-size="24" fill="#495D6D">20</tspan>
      </text>
      <text transform="matrix(1, 0, 0, 1, 481.656, 396.809)">
        <tspan x="-13.348" y="-10.561" font-family="Helvetica-Bold" font-size="24" fill="#495D6D">21</tspan>
      </text>
      <text transform="matrix(1, 0, 0, 1, 568.738, 396.809)">
        <tspan x="-13.348" y="-10.561" font-family="Helvetica-Bold" font-size="24" fill="#495D6D">22</tspan>
      </text>
      <text transform="matrix(1, 0, 0, 1, 44.2, 483.756)">
        <tspan x="-13.348" y="-10.561" font-family="Helvetica-Bold" font-size="24" fill="#495D6D">23</tspan>
      </text>
      <text transform="matrix(1, 0, 0, 1, 131.321, 483.756)">
        <tspan x="-13.348" y="-10.561" font-family="Helvetica-Bold" font-size="24" fill="#495D6D">24</tspan>
      </text>
      <text transform="matrix(1, 0, 0, 1, 218.231, 483.756)">
        <tspan x="-13.348" y="-10.561" font-family="Helvetica-Bold" font-size="24" fill="#495D6D">25</tspan>
      </text>
      <text transform="matrix(1, 0, 0, 1, 305.466, 483.756)">
        <tspan x="-13.348" y="-10.561" font-family="Helvetica-Bold" font-size="24" fill="#495D6D">26</tspan>
      </text>
      <text transform="matrix(1, 0, 0, 1, 393.236, 483.756)">
        <tspan x="-13.348" y="-10.561" font-family="Helvetica-Bold" font-size="24" fill="#495D6D">27</tspan>
      </text>
      <text transform="matrix(1, 0, 0, 1, 481.656, 483.756)">
        <tspan x="-13.348" y="-10.561" font-family="Helvetica-Bold" font-size="24" fill="#495D6D">28</tspan>
      </text>
      <text transform="matrix(1, 0, 0, 1, 568.738, 483.756)">
        <tspan x="-13.348" y="-10.561" font-family="Helvetica-Bold" font-size="24" fill="#495D6D">29</tspan>
      </text>
      <text transform="matrix(1, 0, 0, 1, 44.2, 569.634)">
        <tspan x="-13.348" y="-10.561" font-family="Helvetica-Bold" font-size="24" fill="#495D6D">30</tspan>
      </text>
      <text transform="matrix(1, 0, 0, 1, 131.321, 569.634)">
        <tspan x="-13.348" y="-10.561" font-family="Helvetica-Bold" font-size="24" fill="#495D6D">31</tspan>
      </text>
      <text transform="matrix(1, 0, 0, 1, 218.231, 569.634)">
        <tspan x="-6.674" y="-10.561" font-family="Helvetica-Bold" font-size="24" fill="#9CA4AC">1</tspan>
      </text>
      <text transform="matrix(1, 0, 0, 1, 305.466, 569.397)">
        <tspan x="-6.674" y="-10.561" font-family="Helvetica-Bold" font-size="24" fill="#9CA4AC">2</tspan>
      </text>
      <text transform="matrix(1, 0, 0, 1, 393.236, 569.732)">
        <tspan x="-6.674" y="-10.561" font-family="Helvetica-Bold" font-size="24" fill="#9CA4AC">3</tspan>
      </text>
      <text transform="matrix(1, 0, 0, 1, 481.656, 570.068)">
        <tspan x="-6.674" y="-10.561" font-family="Helvetica-Bold" font-size="24" fill="#9CA4AC">4</tspan>
      </text>
      <text transform="matrix(1, 0, 0, 1, 568.738, 568.745)">
        <tspan x="-6.674" y="-10.561" font-family="Helvetica-Bold" font-size="24" fill="#9CA4AC">5</tspan>
      </text>
      <text transform="matrix(1, 0, 0, 1, 44.2, 75.387)">
        <tspan x="-9.443" y="-2.174" font-family="Helvetica-Bold" font-size="10" fill="#495D6D">Sun</tspan>
      </text>
      <text transform="matrix(1, 0, 0, 1, 131.321, 75.387)">
        <tspan x="-10.273" y="-2.503" font-family="Helvetica-Bold" font-size="10" fill="#495D6D">Mon</tspan>
      </text>
      <text transform="matrix(1, 0, 0, 1, 218.231, 75.387)">
        <tspan x="-8.521" y="-2.174" font-family="Helvetica-Bold" font-size="10" fill="#495D6D">Tue</tspan>
      </text>
      <text transform="matrix(1, 0, 0, 1, 305.466, 75.387)">
        <tspan x="-10.466" y="-2.503" font-family="Helvetica-Bold" font-size="10" fill="#495D6D">Wed</tspan>
      </text>
      <text transform="matrix(1, 0, 0, 1, 393.236, 75.387)">
        <tspan x="-9.163" y="-2.503" font-family="Helvetica-Bold" font-size="10" fill="#495D6D">Thu</tspan>
      </text>
      <text transform="matrix(1, 0, 0, 1, 481.656, 75.387)">
        <tspan x="-6.389" y="-2.174" font-family="Helvetica-Bold" font-size="10" fill="#495D6D">Fri</tspan>
      </text>
      <text transform="matrix(1, 0, 0, 1, 568.738, 75.387)">
        <tspan x="-7.781" y="-2.174" font-family="Helvetica-Bold" font-size="10" fill="#495D6D">Sat</tspan>
      </text>
      <text transform="matrix(1, 0, 0, 1, 306.02, 36.371)">
        <tspan x="-91.864" y="9.855" font-family="Helvetica-Bold" font-size="38" fill="#495D6D">Scheduler</tspan>
      </text>
      <path d="M116.566,33.144 L144.05,16.054 L144.05,51.59 z" fill="#5B636D"/>
      <path d="M116.566,35.951 L144.05,18.86 L144.05,55.567 z" fill="#495D6D"/>
      <path d="M493.2,32.157 L465.716,15.067 L465.716,50.603 z" fill="#5B636D"/>
      <path d="M493.2,34.964 L465.716,17.873 L465.716,54.58 z" fill="#495D6D"/>
      <path d="M-0,608.052 L611.505,608.052 L611.505,612 L-0,612 z" fill="#BABABD"/>
    </g>
  </g>
  <defs/>
</svg>
